HIERARCHY
ROOT Hips
{
  OFFSET -33.9132 29.2015 117.021
  CHANNELS 6 Xposition Yposition Zposition Zrotation Xrotation Yrotation
  JOINT LeftUpLeg
  {
    OFFSET 8.64259 1.95398 -2.38835
    CHANNELS 3 Zrotation Xrotation Yrotation
    JOINT LeftLeg
    {
      OFFSET 43.7702 0 0
      CHANNELS 3 Zrotation Xrotation Yrotation
      JOINT LeftFoot
      {
        OFFSET 40.6238 0 0
        CHANNELS 3 Zrotation Xrotation Yrotation
        JOINT LeftToeBase
        {
          OFFSET 12.7242 0 0
          CHANNELS 3 Zrotation Xrotation Yrotation
          End Site
          {
            OFFSET 0 0 0
          }
        }
      }
    }
  }
  JOINT RightUpLeg
  {
    OFFSET -8.2249 1.95398 -2.59336
    CHANNELS 3 Zrotation Xrotation Yrotation
    JOINT RightLeg
    {
      OFFSET 43.5653 0 0
      CHANNELS 3 Zrotation Xrotation Yrotation
      JOINT RightFoot
      {
        OFFSET 40.6238 0 0
        CHANNELS 3 Zrotation Xrotation Yrotation
        JOINT RightToeBase
        {
          OFFSET 12.7242 0 0
          CHANNELS 3 Zrotation Xrotation Yrotation
          End Site
          {
            OFFSET 0 0 0
          }
        }
      }
    }
  }
  JOINT Spine
  {
    OFFSET 0.165834 0.87714 6.61349
    CHANNELS 3 Zrotation Xrotation Yrotation
    JOINT Spine1
    {
      OFFSET 7.38963 1.71661e-005 0
      CHANNELS 3 Zrotation Xrotation Yrotation
      JOINT Spine2
      {
        OFFSET 11.9445 1.14441e-005 0
        CHANNELS 3 Zrotation Xrotation Yrotation
        JOINT Spine3
        {
          OFFSET 14.7254 4.19617e-005 0
          CHANNELS 3 Zrotation Xrotation Yrotation
          JOINT Spine4
          {
            OFFSET 10.9679 0 0
            CHANNELS 3 Zrotation Xrotation Yrotation
            JOINT RightShoulder
            {
              OFFSET 2.46616 -1.6653 3.69651
              CHANNELS 3 Zrotation Xrotation Yrotation
              JOINT RightArm
              {
                OFFSET 13.0012 0 0
                CHANNELS 3 Zrotation Xrotation Yrotation
                JOINT RightForeArm
                {
                  OFFSET 28.7848 1.62311e-005 0
                  CHANNELS 3 Zrotation Xrotation Yrotation
                  JOINT RightHand
                  {
                    OFFSET 26.5688 1.62095e-005 0
                    CHANNELS 3 Zrotation Xrotation Yrotation
                    End Site
                    {
                      OFFSET 0 0 0
                    }
                  }
                }
              }
            }
            JOINT LeftShoulder
            {
              OFFSET 2.38034 -1.29275 -3.7523
              CHANNELS 3 Zrotation Xrotation Yrotation
              JOINT LeftArm
              {
                OFFSET 16.3182 6.07031e-005 0
                CHANNELS 3 Zrotation Xrotation Yrotation
                JOINT LeftForeArm
                {
                  OFFSET 27.0901 0 0
                  CHANNELS 3 Zrotation Xrotation Yrotation
                  JOINT LeftHand
                  {
                    OFFSET 24.5451 1.51738e-005 0
                    CHANNELS 3 Zrotation Xrotation Yrotation
                    End Site
                    {
                      OFFSET 0 0 0
                    }
                  }
                }
              }
            }
            JOINT Neck
            {
              OFFSET 5.0226 -0.0266342 0
              CHANNELS 3 Zrotation Xrotation Yrotation
              JOINT Head
              {
                OFFSET 6.69364 2.86102e-005 0
                CHANNELS 3 Zrotation Xrotation Yrotation
                End Site
                {
                  OFFSET 0 0 0
                }
              }
            }
          }
        }
      }
    }
  }
}
MOTION
Frames:	6
Frame Time:	0.0416667
15.6158 91.5037 -264.661 79.0922 -40.3466 84.533 -166.397 -5.10941 117.986 -10.0457 60.9886 3.8345 87.7395 15.8963 -4.44768 37.3117 2.33553 4.40922 149.29 17.1346 97.11 -79.8969 9.15471 14.7247 90.2702 -13.3982 -2.9386 18.44 1.60616 9.23924 -5.83203 8.56053 -91.9314 9.62033 -12.4979 -2.86499 -1.99144 -12.6117 -2.30372 -24.9043 -11.054 -6.52808 -4.89171 -11.054 -6.52808 96.4654 -13.6432 -97.9017 47.0934 11.1138 48.4211 -48.5374 -46.2496 -56.8307 -19.4826 5.61946 -38.1611 -84.7692 -25.6954 82.4427 -2.20194 -0.759433 -52.6541 21.9877 28.6503 -47.6986 43.173 -16.4938 -38.0443 36.0514 3.41972 -5.7647 -13.3914 6.07329 -1.97756 
16.1413 94.355 -259.147 74.3363 -46.4097 81.6034 -163.229 -4.69027 116.99 -11.3222 63.7034 4.07238 68.0124 6.90961 5.57875 56.4468 11.5098 0.462414 152.038 29.5358 95.2976 -73.2436 6.87656 12.5261 91.1108 -13.6516 -1.04221 18.0056 2.42542 7.36818 -5.77552 8.2939 -92.1781 10.1326 -12.5002 -3.27635 -1.47999 -12.632 -2.71476 -24.3775 -10.9333 -6.91832 -4.36488 -10.9334 -6.91833 95.8469 -12.0823 -100.211 42.8476 12.9481 54.6965 -51.9968 -44.8862 -60.6521 -19.268 6.02281 -40.7989 -83.3499 -20.9491 84.4191 -2.4893 -3.85951 -50.924 22.2856 27.1559 -48.4194 41.1847 -17.4769 -42.0901 37.0002 6.96735 -4.57443 -15.4229 8.87326 -1.25711 
16.3113 96.2117 -252.859 68.3007 -56.0189 76.6442 -161.159 -7.46492 114.778 -11.802 56.6704 4.15668 52.31 -3.8622 4.67401 46.5375 8.73129 -5.67691 158.833 38.1705 94.4176 -61.0698 2.5035 10.7054 85.4852 -11.5491 -1.40153 19.5972 1.35962 8.65826 -5.26808 8.13003 -92.4161 10.4406 -11.6004 -3.77997 -1.18188 -11.7553 -3.2595 -24.0004 -9.92608 -7.11617 -3.98771 -9.92608 -7.11616 94.7994 -9.93673 -104.192 38.4783 14.239 58.0145 -54.7252 -44.077 -63.429 -13.9385 4.66324 -43.9422 -83.1097 -20.3036 84.8193 -1.05037 -3.9598 -46.5862 22.5912 26.0335 -49.0509 41.0478 -17.781 -42.9189 37.8522 11.0955 -1.10542 -17.4088 11.2859 -1.97665 
16.3689 96.3899 -246.013 54.4602 -67.0307 64.2729 -163.071 -14.6055 110.558 -9.4765 39.003 3.60084 46.8422 -5.52411 0.381477 14.1831 -6.92504 -0.372169 165.834 43.5578 96.23 -46.8411 -4.45042 8.9167 81.3169 -11.2048 -1.34076 19.6015 1.48141 8.28722 -4.217 8.01862 -92.5645 10.6615 -9.57746 -4.22893 -0.979453 -9.75409 -3.80029 -23.6663 -7.86477 -6.92034 -3.65365 -7.86476 -6.92033 93.8843 -10.7848 -106.367 33.5108 15.5897 54.635 -53.7095 -47.9948 -60.8617 -11.4154 4.20313 -47.7361 -83.5962 -21.3589 83.9671 0.264942 -3.1547 -44.2789 21.6601 25.8211 -48.146 39.5996 -17.9018 -44.7025 37.2958 13.3913 -0.0339509 -17.281 12.8923 -1.41724 
16.3122 94.9951 -239.276 24.6453 -76.5722 33.8611 -169.823 -16.1523 100.064 -24.864 24.4132 3.49481 50.8194 -2.98666 3.17994 20.8344 -2.2407 -2.89604 170.732 46.2449 99.0094 -38.4231 -11.9743 6.93049 78.1701 -11.0556 -1.76062 20.6311 1.28815 7.64971 -3.02805 8.09247 -92.3561 10.5564 -7.11291 -4.04606 -1.10031 -7.28395 -3.72816 -23.6901 -5.5698 -5.99759 -3.67745 -5.56978 -5.99758 93.0534 -14.308 -106.754 29.4929 16.2995 46.0142 -49.8882 -53.6793 -55.0921 -12.4809 4.68959 -48.3444 -84.3444 -25.4093 83.2602 3.16503 0.346725 -42.9618 23.8362 26.0375 -50.2067 41.616 -17.6357 -41.9576 38.0321 14.4611 -0.312037 -17.445 13.8972 -0.432314 
16.2682 93.0076 -232.22 -23.8824 -79.4351 -17.1334 -171.796 -10.9333 90.7594 -45.6401 19.3467 0.78661 52.8143 -3.79596 3.24083 24.5861 1.38885 -7.28459 173.225 45.7606 100.7 -38.1745 -12.3796 5.00302 75.3229 -9.50405 -1.23577 24.115 0.781496 4.66452 -1.9788 8.21546 -91.7675 10.3728 -4.7511 -3.09693 -1.29264 -4.88273 -2.88462 -23.8427 -3.60149 -4.38136 -3.83007 -3.6015 -4.38138 92.3769 -18.8616 -106.224 28.829 16.0188 35.3768 -43.3184 -60.149 -46.4533 -19.2896 6.64438 -44.2181 -86.0047 -29.6169 80.8989 4.30998 4.68815 -41.4533 25.0414 27.6469 -50.5428 43.7642 -17.5389 -39.5985 37.0049 13.9708 -0.453106 -16.0918 13.5189 -0.545231 
